<svg xmlns="http://www.w3.org/2000/svg" viewBox="0 0 512 512" width="512" height="512">
  <!-- Monitor -->
  <rect x="80" y="60" width="352" height="280" rx="10" fill="#262a33" stroke="#4361ee" stroke-width="4"/>
  <rect x="100" y="80" width="312" height="220" rx="5" fill="#151729"/>
  
  <!-- Screen Content -->
  <rect x="120" y="100" width="272" height="160" rx="5" fill="#2b3595"/>
  <rect x="140" y="120" width="100" height="20" rx="5" fill="#ffffff" opacity="0.3"/>
  <rect x="140" y="150" width="150" height="10" rx="5" fill="#ffffff" opacity="0.3"/>
  <rect x="140" y="170" width="130" height="10" rx="5" fill="#ffffff" opacity="0.3"/>
  <rect x="140" y="190" width="160" height="10" rx="5" fill="#ffffff" opacity="0.3"/>
  <rect x="140" y="210" width="120" height="10" rx="5" fill="#ffffff" opacity="0.3"/>
  
  <!-- Circuit patterns -->
  <circle cx="270" cy="180" r="35" fill="none" stroke="#5ce1e6" stroke-width="2" opacity="0.5"/>
  <circle cx="270" cy="180" r="25" fill="none" stroke="#5ce1e6" stroke-width="1" opacity="0.5"/>
  <circle cx="270" cy="180" r="15" fill="#5ce1e6" opacity="0.3"/>
  
  <!-- Connecting Lines -->
  <line x1="240" y1="180" x2="210" y2="180" stroke="#5ce1e6" stroke-width="1" opacity="0.5"/>
  <line x1="270" y1="150" x2="270" y2="130" stroke="#5ce1e6" stroke-width="1" opacity="0.5"/>
  <line x1="300" y1="180" x2="330" y2="180" stroke="#5ce1e6" stroke-width="1" opacity="0.5"/>
  <line x1="270" y1="210" x2="270" y2="230" stroke="#5ce1e6" stroke-width="1" opacity="0.5"/>
  
  <!-- Stand -->
  <path d="M200 340 L250 340 L240 390 L210 390 Z" fill="#262a33"/>
  <rect x="180" y="390" width="152" height="20" rx="5" fill="#262a33"/>
  
  <!-- Keyboard -->
  <rect x="140" y="430" width="232" height="40" rx="5" fill="#262a33" stroke="#4361ee" stroke-width="2"/>
  <rect x="150" y="440" width="212" height="20" rx="3" fill="#151729"/>
  <rect x="160" y="445" width="20" height="10" rx="2" fill="#3a4875"/>
  <rect x="190" y="445" width="20" height="10" rx="2" fill="#3a4875"/>
  <rect x="220" y="445" width="20" height="10" rx="2" fill="#3a4875"/>
  <rect x="250" y="445" width="20" height="10" rx="2" fill="#3a4875"/>
  <rect x="280" y="445" width="20" height="10" rx="2" fill="#3a4875"/>
  <rect x="310" y="445" width="20" height="10" rx="2" fill="#3a4875"/>
  
  <!-- Mouse -->
  <ellipse cx="400" cy="450" rx="20" ry="30" fill="#262a33" stroke="#4361ee" stroke-width="2"/>
  <line x1="400" y1="435" x2="400" y2="445" stroke="#3a4875" stroke-width="2"/>
  
  <!-- Glow Effects -->
  <rect x="80" y="60" width="352" height="280" rx="10" fill="url(#glow)" opacity="0.3"/>
  
  <!-- Gradient Definition -->
  <defs>
    <radialGradient id="glow" cx="0.5" cy="0.5" r="0.5" fx="0.5" fy="0.5">
      <stop offset="0%" stop-color="#4361ee" stop-opacity="0.7"/>
      <stop offset="100%" stop-color="#4361ee" stop-opacity="0"/>
    </radialGradient>
  </defs>
</svg> 